<svg xmlns="http://www.w3.org/2000/svg" version="1.1" xmlns:xlink="http://www.w3.org/1999/xlink" xmlns:svgjs="http://svgjs.com/svgjs" width="1440" height="560" preserveAspectRatio="none" viewBox="0 0 1440 560"><g mask="url(&quot;#SvgjsMask1000&quot;)" fill="none"><rect width="1440" height="560" x="0" y="0" fill="rgba(79, 148, 219, 1)"></rect><path d="M0,672.482C126.697,667.366,259.129,633.136,350.171,544.877C435.955,461.715,438.04,330.031,471.546,215.348C499.972,118.053,533.304,24.903,531.701,-76.447C529.919,-189.106,534.348,-313.944,461.81,-400.161C389.083,-486.603,260.009,-485.582,154.196,-525.142C38.53,-568.386,-75.303,-691.793,-188.935,-643.455C-306.157,-593.59,-274.44,-406.319,-355.717,-308.23C-434.058,-213.685,-624.18,-213.737,-645.236,-92.771C-666.089,27.029,-491.294,90.769,-444.722,203.098C-395.403,322.054,-457.399,480.431,-368.83,573.911C-279.495,668.2,-129.783,677.723,0,672.482" fill="#266fba"></path><path d="M1440 1074.313C1550.125 1107.524 1684.595 1153.046 1777.888 1085.7640000000001 1871.978 1017.9069999999999 1844.203 870.7860000000001 1876.645 759.409 1903.613 666.826 1955.3139999999999 582.704 1952.495 486.31399999999996 1949.464 382.687 1933.37 269.332 1860.164 195.926 1787.941 123.505 1672.208 132.058 1573.286 106.06799999999998 1477.6779999999999 80.94900000000001 1384.723 21.04499999999996 1289.039 45.874000000000024 1192.641 70.88900000000001 1139.186 168.07999999999998 1067.58 237.296 988.0989999999999 314.124 854.355 364.341 845.576 474.53499999999997 836.696 585.998 955.352 662.704 1026.836 748.686 1080.95 813.774 1145.34 862.6600000000001 1211.82 915.0550000000001 1286.174 973.656 1349.361 1046.979 1440 1074.313" fill="#8dbae8"></path></g><defs><mask id="SvgjsMask1000"><rect width="1440" height="560" fill="#ffffff"></rect></mask></defs></svg>